GREETZ: UnDeaD - BadGirl2k9 - virusofsaten - foxyb - WICCYWOLF - lizzymwah1

VISIT http://www.seedboxworld.biz/ for all ur seedbox needs!

RELEASE NAME: Piranha.2010.TS.X264-SDTeam
RELEASED BY: UnDeaD & BadGirl2k9
SIZE: 343 MB

LANGUAGE: English
IMDb: http://www.imdb.com/title/tt0464154/

PLOT: After a sudden underwater tremor sets free scores 
of the prehistoric man-eating fish, an unlikely group of 
strangers must band together to stop themselves from becoming 
fish food for the area's new razor-toothed residents. 

SCREENS: 
http://i658.photobucket.com/albums/uu309/BadGirl2k9/screens/vlcsnap-2010-08-29-22h30m19s0.png 
http://i658.photobucket.com/albums/uu309/BadGirl2k9/screens/vlcsnap-2010-08-29-22h31m01s0.png 
http://i658.photobucket.com/albums/uu309/BadGirl2k9/screens/vlcsnap-2010-08-29-22h31m15s55.png

General
Format                           : MPEG-4
Format profile                   : Base Media
Codec ID                         : isom
File size                        : 344 MiB
Duration                         : 1h 18mn
Overall bit rate                 : 612 Kbps
Encoded date                     : UTC 2010-08-28 21:14:12
Tagged date                      : UTC 2010-08-28 21:14:12

Video
ID                               : 1
Format                           : AVC
Format/Info                      : Advanced Video Codec
Format profile                   : High@L2.2
Format settings, CABAC           : Yes
Format settings, ReFrames        : 4 frames
Codec ID                         : avc1
Codec ID/Info                    : Advanced Video Coding
Duration                         : 1h 18mn
Duration_LastFrame               : 50ms
Bit rate mode                    : Variable
Bit rate                         : 490 Kbps
Nominal bit rate                 : 500 Kbps
Maximum bit rate                 : 1 765 Kbps
Width                            : 720 pixels
Height                           : 304 pixels
Display aspect ratio             : 2.35:1
Frame rate mode                  : Constant
Frame rate                       : 20.000 fps
Resolution                       : 8 bits
Colorimetry                      : 4:2:0
Scan type                        : Progressive
Bits/(Pixel*Frame)               : 0.112
Stream size                      : 275 MiB (80%)
Title                            : Imported with GPAC 0.4.6-DEV (internal rev. 5)
Writing library                  : x264 core 102 r1666 d058f37

Audio
ID                               : 2
Format                           : MPEG Audio
Format version                   : Version 1
Format profile                   : Layer 3
Codec ID                         : 6B
Duration                         : 1h 18mn
Bit rate mode                    : Variable
Bit rate                         : 119 Kbps
Nominal bit rate                 : 128 Kbps
Maximum bit rate                 : 130 Kbps
Channel(s)                       : 2 channels
Sampling rate                    : 48.0 KHz
Stream size                      : 66.7 MiB (19%)
Title                            : Imported with GPAC 0.4.6-DEV (internal rev. 5)
Writing library                  : LAME3.97 

GROUP NOTE: Big thanks to seedboxworld.biz for the seedbox!
